<?xml version="1.0" encoding="UTF-8"?>
<!-- Horizontal lockup: light background / PPT -->
<svg xmlns="http://www.w3.org/2000/svg" viewBox="0 0 420 88" role="img" aria-label="Rune Abyss horizontal lockup for light background">
  <defs>
    <linearGradient id="lbGold" x1="0" y1="0" x2="0" y2="1">
      <stop offset="0%" stop-color="#f5d28a"/>
      <stop offset="45%" stop-color="#b8892f"/>
      <stop offset="100%" stop-color="#6b4a0e"/>
    </linearGradient>
    <radialGradient id="lbSheen" cx="35%" cy="30%" r="70%">
      <stop offset="0%" stop-color="#fff5d6" stop-opacity="0.45"/>
      <stop offset="60%" stop-color="#fff5d6" stop-opacity="0"/>
    </radialGradient>
  </defs>
  <g transform="translate(8,12) scale(0.9375)">
    <circle cx="32" cy="32" r="30" fill="url(#lbGold)"/>
    <circle cx="32" cy="32" r="30" fill="url(#lbSheen)"/>
    <circle cx="32" cy="32" r="29.25" fill="none" stroke="rgba(0,0,0,0.25)" stroke-width="1.5"/>
    <circle cx="32" cy="32" r="24" fill="none" stroke="rgba(13,148,136,0.65)" stroke-width="0.6" stroke-dasharray="1.5 2.5"/>
    <g stroke="rgba(10,13,18,0.65)" stroke-width="2" stroke-linecap="round">
      <line x1="32" y1="4.5" x2="32" y2="9"/>
      <line x1="32" y1="55" x2="32" y2="59.5"/>
      <line x1="4.5" y1="32" x2="9" y2="32"/>
      <line x1="55" y1="32" x2="59.5" y2="32"/>
    </g>
    <g stroke="#0f172a" stroke-width="3.5" stroke-linecap="round" stroke-linejoin="round" fill="none">
      <path d="M19 46 L32 17 L45 46"/>
      <path d="M25 36 L39 36"/>
      <path d="M16 46 L22 46"/>
      <path d="M42 46 L48 46"/>
    </g>
    <circle cx="32" cy="44" r="1.6" fill="#0f172a"/>
    <circle cx="32" cy="44" r="0.7" fill="#0d9488"/>
  </g>
  <text x="92" y="38" font-family="Cinzel, Georgia, 'Times New Roman', serif" font-size="22" font-weight="700" fill="#422006">Rune Abyss</text>
  <text x="92" y="58" font-family="'PingFang SC','Microsoft YaHei',sans-serif" font-size="11" letter-spacing="0.35em" fill="#57534e">&#x7b26;&#x6587;&#x6df1;&#x6e0a;</text>
  <text x="92" y="76" font-family="system-ui,sans-serif" font-size="9" letter-spacing="0.12em" fill="#78716c">BSC &#183; Chain ID 56</text>
</svg>
