<?xml version="1.0" encoding="UTF-8"?>
<svg xmlns="http://www.w3.org/2000/svg" viewBox="0 0 256 256" role="img" aria-label="Rune Abyss mark">
  <defs>
    <linearGradient id="raGold" x1="0" y1="0" x2="0" y2="1">
      <stop offset="0%" stop-color="#f5d28a"/>
      <stop offset="45%" stop-color="#d4af37"/>
      <stop offset="100%" stop-color="#7a4f12"/>
    </linearGradient>
    <radialGradient id="raSheen" cx="35%" cy="30%" r="70%">
      <stop offset="0%" stop-color="#fff5d6" stop-opacity="0.55"/>
      <stop offset="60%" stop-color="#fff5d6" stop-opacity="0"/>
    </radialGradient>
  </defs>
  <circle cx="128" cy="128" r="120" fill="#d4af37"/>
  <circle cx="128" cy="128" r="120" fill="url(#raGold)"/>
  <circle cx="128" cy="128" r="120" fill="url(#raSheen)"/>
  <circle cx="128" cy="128" r="117" fill="none" stroke="rgba(0,0,0,0.35)" stroke-width="6"/>
  <circle cx="128" cy="128" r="96" fill="none" stroke="rgba(20,184,166,0.55)" stroke-width="2.4" stroke-dasharray="6 10"/>
  <g stroke="rgba(10,13,18,0.75)" stroke-width="8" stroke-linecap="round">
    <line x1="128" y1="18" x2="128" y2="36"/>
    <line x1="128" y1="220" x2="128" y2="238"/>
    <line x1="18" y1="128" x2="36" y2="128"/>
    <line x1="220" y1="128" x2="238" y2="128"/>
  </g>
  <g stroke="#0a0d12" stroke-width="14" stroke-linecap="round" stroke-linejoin="round" fill="none">
    <path d="M76 184 L128 68 L180 184"/>
    <path d="M100 144 L156 144"/>
    <path d="M64 184 L88 184"/>
    <path d="M168 184 L192 184"/>
  </g>
  <circle cx="128" cy="176" r="6.4" fill="#0a0d12"/>
  <circle cx="128" cy="176" r="2.8" fill="#5eead4"/>
</svg>
